<svg width="34" height="34" viewBox="0 0 34 34" fill="none" xmlns="http://www.w3.org/2000/svg">
<path d="M29.4002 14H4.2002M22.4002 2.79999V8.39999M11.2002 2.79999V8.39999M10.9202 30.8H22.6802C25.0324 30.8 26.2085 30.8 27.107 30.3422C27.8972 29.9395 28.5398 29.297 28.9424 28.5067C29.4002 27.6083 29.4002 26.4322 29.4002 24.08V12.32C29.4002 9.96777 29.4002 8.79166 28.9424 7.89323C28.5398 7.10295 27.8972 6.46043 27.107 6.05776C26.2085 5.59999 25.0324 5.59999 22.6802 5.59999H10.9202C8.56797 5.59999 7.39186 5.59999 6.49344 6.05776C5.70315 6.46043 5.06064 7.10295 4.65797 7.89323C4.2002 8.79166 4.2002 9.96777 4.2002 12.32V24.08C4.2002 26.4322 4.2002 27.6083 4.65797 28.5067C5.06064 29.297 5.70315 29.9395 6.49344 30.3422C7.39186 30.8 8.56797 30.8 10.9202 30.8Z" stroke="#2970FF" stroke-width="2.8" stroke-linecap="round" stroke-linejoin="round"/>
<rect x="4.2002" y="7" width="25.2" height="7" fill="#2970FF"/>
</svg>
