<svg width="20" height="20" viewBox="0 0 20 20" fill="none" xmlns="http://www.w3.org/2000/svg">
<g clip-path="url(#clip0_20950_17611)">
<path d="M17.4997 9.99967C17.4997 5.85754 14.1418 2.49967 9.99967 2.49967C5.85754 2.49967 2.49967 5.85754 2.49967 9.99967C2.49967 14.1418 5.85754 17.4997 9.99967 17.4997C14.1418 17.4997 17.4997 14.1418 17.4997 9.99967ZM9.16634 4.99967C9.16634 4.53944 9.53944 4.16634 9.99967 4.16634C10.4599 4.16634 10.833 4.53944 10.833 4.99967V9.48454L13.7057 10.9209C14.1174 11.1267 14.2843 11.6274 14.0785 12.0391C13.8726 12.4507 13.3719 12.6176 12.9603 12.4118L9.62695 10.7451C9.34463 10.604 9.16634 10.3153 9.16634 9.99967V4.99967ZM19.1663 9.99967C19.1663 15.0623 15.0623 19.1663 9.99967 19.1663C4.93706 19.1663 0.833008 15.0623 0.833008 9.99967C0.833008 4.93706 4.93706 0.833008 9.99967 0.833008C15.0623 0.833008 19.1663 4.93706 19.1663 9.99967Z" fill="#717680"/>
</g>
<defs>
<clipPath id="clip0_20950_17611">
<rect width="20" height="20" fill="white"/>
</clipPath>
</defs>
</svg>
