<svg width="31" height="31" viewBox="0 0 31 31" fill="none" xmlns="http://www.w3.org/2000/svg">
<path d="M14.1433 21.858C14.1433 21.7321 14.1461 21.607 14.1521 21.4826C14.1537 21.4486 14.1575 21.4147 14.1596 21.3809C14.161 21.3587 14.1606 21.3364 14.1621 21.3143C14.0283 21.3501 13.8932 21.3853 13.7566 21.4173C12.5478 21.7 11.1369 21.858 9.64328 21.858C7.58123 21.858 5.65796 21.5566 4.2041 21.028C4.08676 20.9854 3.97194 20.9357 3.85756 20.8887V23.7037C3.8762 23.7268 3.90863 23.764 3.96554 23.8129C4.16312 23.9828 4.52508 24.1939 5.08301 24.3968C6.18842 24.7986 7.8005 25.0723 9.64328 25.0723C11.0109 25.0723 12.2617 24.9214 13.2744 24.6742C13.7786 24.5512 14.1957 24.4099 14.5287 24.2674C14.471 24.0917 14.4182 23.9136 14.373 23.7326C14.3634 23.6939 14.3558 23.6547 14.3467 23.6158C14.3235 23.5164 14.3019 23.4165 14.2826 23.3157C14.2717 23.2586 14.2622 23.2012 14.2525 23.1437C14.2386 23.0608 14.2261 22.9776 14.2148 22.8938C14.207 22.8354 14.1988 22.7769 14.1922 22.7181C14.1833 22.6372 14.1761 22.556 14.1696 22.4745C14.1647 22.4118 14.158 22.3492 14.1546 22.2861C14.1468 22.1444 14.1433 22.0016 14.1433 21.858ZM15.0824 15.2423C13.6286 15.7709 11.7053 16.0723 9.64328 16.0723C7.58123 16.0723 5.65796 15.7709 4.2041 15.2423C4.08676 15.1997 3.97194 15.15 3.85756 15.103V17.918C3.8762 17.9411 3.90863 17.9783 3.96554 18.0272C4.16312 18.197 4.52508 18.4082 5.08301 18.611C6.18842 19.0129 7.8005 19.2866 9.64328 19.2866C10.9638 19.2866 12.1757 19.1462 13.1702 18.9136C14.0346 18.7115 14.6636 18.4535 15.0573 18.2118C15.0847 18.1609 15.1143 18.1113 15.1427 18.0611C15.1732 18.0072 15.2039 17.9535 15.2356 17.9004C15.2598 17.8601 15.2836 17.8197 15.3085 17.7799C15.3476 17.7172 15.3882 17.6555 15.429 17.594V15.103C15.3146 15.15 15.1998 15.1997 15.0824 15.2423ZM15.0824 9.45661C13.6286 9.98518 11.7053 10.2866 9.64328 10.2866C7.58123 10.2866 5.65796 9.98518 4.2041 9.45661C4.08676 9.41394 3.97194 9.36426 3.85756 9.31724V12.1323C3.8762 12.1554 3.90863 12.1926 3.96554 12.2415C4.16312 12.4113 4.52508 12.6225 5.08301 12.8253C6.18842 13.2272 7.8005 13.5008 9.64328 13.5008C11.486 13.5008 13.0981 13.2272 14.2035 12.8253C14.7615 12.6225 15.1234 12.4113 15.321 12.2415C15.3779 12.1926 15.4103 12.1554 15.429 12.1323V9.31724C15.3146 9.36426 15.1998 9.41394 15.0824 9.45661ZM9.64328 5.14369C7.8005 5.14369 6.18842 5.41734 5.08301 5.8192C4.52508 6.02208 4.16312 6.2332 3.96554 6.40304C3.95529 6.41186 3.9467 6.42142 3.93792 6.42941C3.9467 6.43739 3.95529 6.44696 3.96554 6.45578C4.16312 6.62562 4.52508 6.83674 5.08301 7.03962C6.18842 7.44147 7.8005 7.71512 9.64328 7.71512C11.486 7.71512 13.0981 7.44147 14.2035 7.03962C14.7615 6.83674 15.1234 6.62562 15.321 6.45578C15.331 6.44719 15.3388 6.43721 15.3474 6.42941C15.3388 6.42161 15.331 6.41163 15.321 6.40304C15.1234 6.2332 14.7615 6.02208 14.2035 5.8192C13.0981 5.41734 11.486 5.14369 9.64328 5.14369ZM16.7147 21.858C16.7147 22.0924 16.7309 22.3229 16.7612 22.5485C16.7693 22.6092 16.7786 22.6694 16.7888 22.7294C16.795 22.7659 16.8019 22.8023 16.8089 22.8386C16.8193 22.8925 16.8307 22.946 16.8428 22.9993C16.8522 23.0409 16.8612 23.0824 16.8717 23.1236C16.9386 23.3882 17.0266 23.6443 17.1328 23.8908C17.151 23.933 17.17 23.9747 17.1893 24.0163C18.0053 25.7782 19.7882 27.0008 21.8576 27.0008C24.6979 27.0008 27.0004 24.6983 27.0004 21.858C27.0004 19.0177 24.6979 16.7151 21.8576 16.7151C20.1749 16.7151 18.68 17.5225 17.7418 18.7718L17.743 18.773C17.6556 18.8894 17.5732 19.0097 17.4957 19.1334C17.4343 19.2315 17.3747 19.331 17.3199 19.4335C17.309 19.4537 17.2991 19.4745 17.2885 19.495C17.2455 19.578 17.2065 19.6631 17.168 19.7486C17.1541 19.7793 17.1385 19.8092 17.1253 19.8403C17.0835 19.9381 17.0468 20.0383 17.011 20.1391C16.9965 20.18 16.9818 20.2208 16.9683 20.2621C16.9264 20.3907 16.8884 20.5211 16.8566 20.6539C16.7939 20.9156 16.752 21.1853 16.731 21.4612C16.721 21.5922 16.7147 21.7244 16.7147 21.858ZM29.5718 21.858C29.5718 26.1185 26.118 29.5723 21.8576 29.5723C19.3601 29.5723 17.1415 28.3842 15.7316 26.5438C15.1696 26.8026 14.5399 27.0127 13.8834 27.1729C12.6462 27.4747 11.1888 27.6437 9.64328 27.6437C7.58123 27.6437 5.65796 27.3423 4.2041 26.8138C3.48252 26.5514 2.80742 26.2082 2.28934 25.7628C1.77541 25.321 1.28613 24.6573 1.28613 23.7866V6.42941C1.28613 5.55866 1.77541 4.89497 2.28934 4.45312C2.80742 4.00778 3.48252 3.6646 4.2041 3.4022C5.65796 2.87364 7.58123 2.57227 9.64328 2.57227C11.7053 2.57227 13.6286 2.87364 15.0824 3.4022C15.804 3.6646 16.4791 4.00778 16.9972 4.45312C17.5111 4.89497 18.0004 5.55866 18.0004 6.42941V15.177C19.1352 14.5205 20.4522 14.1437 21.8576 14.1437C26.118 14.1437 29.5718 17.5975 29.5718 21.858Z" fill="#414651"/>
</svg>
