<svg width="64" height="64" viewBox="0 0 64 64" fill="none" xmlns="http://www.w3.org/2000/svg">
<rect width="64" height="64" rx="32" fill="#EFF4FF"/>
<path d="M44.0002 25.6003C44.0002 24.8315 43.9985 24.3348 43.9676 23.957C43.938 23.5949 43.8879 23.4605 43.8543 23.3945C43.7265 23.1439 43.5229 22.9403 43.2723 22.8125C43.2064 22.7789 43.0719 22.7288 42.7098 22.6992C42.521 22.6838 42.3025 22.6747 42.0353 22.6706L41.0666 22.6667H22.9338C22.165 22.6667 21.6683 22.6684 21.2905 22.6992C20.9284 22.7288 20.794 22.7789 20.728 22.8125C20.4774 22.9403 20.2738 23.1439 20.146 23.3945C20.1124 23.4605 20.0623 23.5949 20.0327 23.957C20.0019 24.3348 20.0002 24.8315 20.0002 25.6003V26.1497C22.672 26.7561 24.6668 29.1446 24.6668 32C24.6668 34.8553 22.6719 37.2425 20.0002 37.849V38.3997C20.0002 39.1685 20.0019 39.6652 20.0327 40.043C20.0623 40.4051 20.1124 40.5396 20.146 40.6055C20.2738 40.8561 20.4774 41.0597 20.728 41.1875C20.794 41.2211 20.9284 41.2712 21.2905 41.3008C21.6683 41.3317 22.165 41.3333 22.9338 41.3333H41.0666C41.8353 41.3333 42.332 41.3317 42.7098 41.3008C43.0719 41.2712 43.2064 41.2211 43.2723 41.1875C43.5229 41.0597 43.7265 40.8561 43.8543 40.6055C43.8879 40.5396 43.938 40.4051 43.9676 40.043C43.9985 39.6652 44.0002 39.1685 44.0002 38.3997V37.849C41.3284 37.2425 39.3335 34.8553 39.3335 32C39.3335 29.1446 41.3283 26.7561 44.0002 26.1497V25.6003ZM28.0002 38.6667V37.3333C28.0002 36.597 28.5971 36 29.3335 36C30.0699 36 30.6668 36.597 30.6668 37.3333V38.6667C30.6668 39.4031 30.0699 40 29.3335 40C28.5971 40 28.0002 39.4031 28.0002 38.6667ZM28.0002 32.6667V31.3333C28.0002 30.597 28.5971 30 29.3335 30C30.0699 30 30.6668 30.597 30.6668 31.3333V32.6667C30.6668 33.4031 30.0699 34 29.3335 34C28.5971 34 28.0002 33.4031 28.0002 32.6667ZM28.0002 26.6667V25.3333C28.0002 24.597 28.5971 24 29.3335 24C30.0699 24 30.6668 24.597 30.6668 25.3333V26.6667C30.6668 27.4031 30.0699 28 29.3335 28C28.5971 28 28.0002 27.4031 28.0002 26.6667ZM46.6668 27.3333C46.6668 28.0697 46.0699 28.6667 45.3335 28.6667C43.4925 28.6667 42.0002 30.1591 42.0002 32C42.0002 33.841 43.4925 35.3333 45.3335 35.3333C46.0699 35.3333 46.6668 35.9303 46.6668 36.6667V38.3997C46.6668 39.1245 46.6683 39.7489 46.6265 40.2604C46.5834 40.7874 46.4876 41.312 46.2306 41.8164C45.8472 42.5687 45.2355 43.1804 44.4832 43.5638C43.9788 43.8208 43.4543 43.9166 42.9272 43.9596C42.4157 44.0014 41.7913 44 41.0666 44H22.9338C22.209 44 21.5846 44.0014 21.0731 43.9596C20.5461 43.9166 20.0215 43.8208 19.5171 43.5638C18.7648 43.1804 18.1531 42.5687 17.7697 41.8164C17.5127 41.312 17.4169 40.7874 17.3739 40.2604C17.3321 39.7489 17.3335 39.1245 17.3335 38.3997V36.6667C17.3335 35.9303 17.9305 35.3333 18.6668 35.3333C20.5078 35.3333 22.0002 33.841 22.0002 32C22.0002 30.1591 20.5078 28.6667 18.6668 28.6667C17.9305 28.6667 17.3335 28.0697 17.3335 27.3333V25.6003C17.3335 24.8755 17.3321 24.2512 17.3739 23.7396C17.4169 23.2126 17.5127 22.688 17.7697 22.1836C18.1531 21.4313 18.7648 20.8196 19.5171 20.4362C20.0215 20.1792 20.5461 20.0835 21.0731 20.0404C21.5846 19.9986 22.209 20 22.9338 20H41.0666L42.077 20.0052C42.3874 20.0102 42.6715 20.0195 42.9272 20.0404C43.4543 20.0835 43.9788 20.1792 44.4832 20.4362C45.2355 20.8196 45.8472 21.4313 46.2306 22.1836C46.4876 22.688 46.5834 23.2126 46.6265 23.7396C46.6683 24.2512 46.6668 24.8755 46.6668 25.6003V27.3333Z" fill="#528BFF"/>
</svg>
