<svg width="32" height="32" viewBox="0 0 32 32" fill="none" xmlns="http://www.w3.org/2000/svg">
<rect x="0.75" y="0.75" width="30.5" height="30.5" rx="15.25" fill="white" stroke="#E9EAEB" stroke-width="1.5"/>
<path d="M19.2197 8.71978C20.341 7.59861 22.1589 7.59862 23.2802 8.71978C24.4015 9.84107 24.4014 11.659 23.2802 12.7803L13.3757 22.6856C13.1763 22.885 13.0054 23.0606 12.8 23.1961C12.6308 23.3077 12.4472 23.3959 12.2543 23.4583C12.0203 23.5341 11.7764 23.5576 11.4963 23.5887L8.9577 23.8707C8.73128 23.8958 8.50576 23.8164 8.34467 23.6553C8.18364 23.4942 8.10418 23.2687 8.12933 23.0423L8.41132 20.5045C8.44246 20.2242 8.46589 19.9798 8.54169 19.7457C8.60412 19.5528 8.69304 19.3692 8.80463 19.2C8.94008 18.9947 9.11583 18.8236 9.31512 18.6243L19.2197 8.71978ZM22.2197 9.78033C21.6842 9.24495 20.8157 9.24494 20.2802 9.78033L10.3757 19.6856C10.1339 19.9274 10.0886 19.9773 10.0563 20.0262C10.0192 20.0825 9.98996 20.1436 9.96918 20.2078C9.95114 20.2635 9.9403 20.33 9.90253 20.67L9.72382 22.2762L11.3307 22.0982C11.6703 22.0605 11.7365 22.0488 11.7922 22.0308C11.8565 22.01 11.9181 21.9809 11.9745 21.9437C12.0234 21.9114 12.0736 21.8658 12.3151 21.6243L22.2197 11.7198C22.7551 11.1842 22.7552 10.3158 22.2197 9.78033Z" fill="#535862"/>
</svg>
