<svg width="16" height="16" viewBox="0 0 16 16" fill="none" xmlns="http://www.w3.org/2000/svg">
<path d="M11.0949 0.840877C12.2162 -0.280299 14.0342 -0.280286 15.1555 0.840877C16.2767 1.96216 16.2767 3.7801 15.1555 4.90142L5.25092 14.8067C5.05156 15.0061 4.88065 15.1817 4.67523 15.3172C4.50601 15.4288 4.32242 15.517 4.12958 15.5794C3.89551 15.6552 3.65168 15.6786 3.37152 15.7098L0.832946 15.9918C0.606521 16.0169 0.381002 15.9375 0.219909 15.7764C0.0588802 15.6153 -0.0205773 15.3898 0.00457728 15.1634L0.28656 12.6255C0.3177 12.3453 0.341134 12.1009 0.416931 11.8668C0.479368 11.6739 0.568289 11.4903 0.67987 11.3211C0.815324 11.1158 0.991075 10.9447 1.19037 10.7454L11.0949 0.840877ZM14.0949 1.90142C13.5594 1.36605 12.691 1.36603 12.1555 1.90142L2.25092 11.8067C2.00911 12.0485 1.96382 12.0984 1.93158 12.1473C1.89446 12.2036 1.86521 12.2647 1.84442 12.3289C1.82638 12.3846 1.81555 12.4511 1.77777 12.7911L1.59906 14.3973L3.20599 14.2193C3.54558 14.1816 3.61172 14.1699 3.66742 14.1519C3.73171 14.1311 3.79338 14.102 3.84979 14.0648C3.89861 14.0325 3.94888 13.9869 4.19037 13.7454L14.0949 3.84088C14.6303 3.30533 14.6304 2.43692 14.0949 1.90142Z" fill="#535862"/>
</svg>
