<svg width="20" height="20" viewBox="0 0 20 20" fill="none" xmlns="http://www.w3.org/2000/svg">
<path d="M12.5001 14.1667C12.9603 14.1667 13.3334 14.5398 13.3334 15.0001C13.3334 15.4603 12.9603 15.8334 12.5001 15.8334H7.50008C7.03984 15.8334 6.66675 15.4603 6.66675 15.0001C6.66675 14.5398 7.03984 14.1667 7.50008 14.1667H12.5001ZM15.0001 9.16675C15.4603 9.16675 15.8334 9.53984 15.8334 10.0001C15.8334 10.4603 15.4603 10.8334 15.0001 10.8334H5.00008C4.53984 10.8334 4.16675 10.4603 4.16675 10.0001C4.16675 9.53984 4.53984 9.16675 5.00008 9.16675H15.0001ZM17.5001 4.16675C17.9603 4.16675 18.3334 4.53984 18.3334 5.00008C18.3334 5.46032 17.9603 5.83341 17.5001 5.83341H2.50008C2.03984 5.83341 1.66675 5.46032 1.66675 5.00008C1.66675 4.53984 2.03984 4.16675 2.50008 4.16675H17.5001Z" fill="#2970FF"/>
</svg>
