<svg width="20" height="20" viewBox="0 0 20 20" fill="none" xmlns="http://www.w3.org/2000/svg">
<path d="M17.4999 3.8331C17.4999 3.5862 17.4989 3.45088 17.4909 3.35377C17.4906 3.35003 17.4896 3.34655 17.4893 3.34319C17.4862 3.34291 17.483 3.34266 17.4795 3.34238C17.3824 3.33444 17.2471 3.33343 17.0002 3.33343H2.99956C2.75266 3.33343 2.61734 3.33444 2.52023 3.34238C2.51651 3.34268 2.51298 3.34289 2.50965 3.34319C2.50934 3.34653 2.50914 3.35006 2.50883 3.35377C2.5009 3.45088 2.49988 3.5862 2.49988 3.8331V4.39137C2.49988 4.51119 2.50016 4.5715 2.50232 4.61516C2.50238 4.61629 2.50227 4.61738 2.50232 4.61842C2.50312 4.61919 2.5039 4.62003 2.50477 4.62086C2.53635 4.6511 2.58185 4.69049 2.67241 4.76897L8.002 9.38811C8.13808 9.50605 8.3236 9.6583 8.45936 9.85686C8.54001 9.97489 8.60511 10.1026 8.65304 10.2369L8.69536 10.3736L8.72954 10.5486C8.75348 10.7223 8.74988 10.8905 8.74988 11.0255V16.2688L11.2499 15.2686V11.0255C11.2499 10.8454 11.2433 10.6062 11.3044 10.3736C11.3529 10.1892 11.4328 10.0143 11.5404 9.85686C11.6762 9.6583 11.8617 9.50605 11.9978 9.38811L17.3274 4.76897C17.4179 4.69049 17.4634 4.6511 17.495 4.62086C17.4957 4.62018 17.496 4.61906 17.4966 4.61842C17.4967 4.61737 17.4974 4.61631 17.4974 4.61516C17.4996 4.5715 17.4999 4.51119 17.4999 4.39137V3.8331ZM19.1665 4.39137C19.1666 4.57143 19.1731 4.81066 19.112 5.04322C19.0635 5.22769 18.9836 5.40252 18.876 5.55999C18.7403 5.75855 18.5548 5.9108 18.4187 6.02874L13.0891 10.6479C12.9985 10.7264 12.953 10.7658 12.9214 10.796C12.9207 10.7967 12.9197 10.797 12.919 10.7976C12.9189 10.7989 12.9191 10.8003 12.919 10.8017C12.9168 10.8454 12.9165 10.9057 12.9165 11.0255V15.3818C12.9165 15.4782 12.929 15.7428 12.8376 15.988C12.7679 16.1748 12.6547 16.3423 12.5072 16.4763C12.3135 16.6524 12.0629 16.7392 11.9734 16.775L9.14051 17.9078C9.0022 17.9631 8.84589 18.0265 8.70919 18.0673C8.57029 18.1088 8.34168 18.1635 8.0785 18.1088C7.75611 18.0417 7.47349 17.8494 7.29155 17.575C7.14321 17.3511 7.10854 17.1195 7.09542 16.9752C7.08253 16.8331 7.08322 16.6644 7.08322 16.5154V11.0255C7.08322 10.9057 7.08294 10.8454 7.08077 10.8017C7.0807 10.8003 7.08003 10.7989 7.07996 10.7976L7.07833 10.796C7.04675 10.7658 7.00125 10.7264 6.91069 10.6479L1.5811 6.02874C1.44501 5.9108 1.2595 5.75855 1.12374 5.55999C1.01613 5.40252 0.936222 5.22769 0.887741 5.04322C0.826626 4.81066 0.833213 4.57142 0.833216 4.39137V3.8331C0.833216 3.61361 0.832289 3.39854 0.847051 3.21787C0.862631 3.02745 0.899515 2.80264 1.01469 2.57659C1.17447 2.26305 1.4295 2.00802 1.74305 1.84824C1.9691 1.73306 2.1939 1.69617 2.38432 1.68059C2.565 1.66583 2.78007 1.66676 2.99956 1.66676H17.0002C17.2197 1.66676 17.4348 1.66583 17.6154 1.68059C17.8059 1.69617 18.0307 1.73306 18.2567 1.84824C18.5311 1.98805 18.7607 2.2008 18.9208 2.46184L18.9851 2.57659L19.0575 2.74586C19.1171 2.91323 19.141 3.07514 19.1527 3.21787C19.1675 3.39854 19.1665 3.61361 19.1665 3.8331V4.39137Z" fill="#2970FF"/>
</svg>
