<svg width="100" height="17" viewBox="0 0 100 17" fill="none" xmlns="http://www.w3.org/2000/svg">
<path d="M14.1203 1.41978H5.60027L1.62027 16.2798H0.000273429L4.38027 -0.000215054H15.5403L14.1203 1.41978ZM11.0203 9.73978H5.46027L3.70027 16.2798H2.10027L4.24027 8.31978H11.4003L11.0203 9.73978ZM12.2203 3.31979H7.18027L6.36027 6.41978H11.9203L11.5203 7.83978H4.38027L5.98027 1.89978H13.6403L12.2203 3.31979ZM13.3761 16.2798H11.7361L16.1161 -0.000215054H17.7561L13.3761 16.2798ZM15.4961 16.2798H13.8561L18.2361 -0.000215054H19.8761L15.4961 16.2798ZM22.0539 16.2798H20.3939L23.8539 3.35978H19.9539L20.3539 1.93979H25.9339L22.0539 16.2798ZM32.5339 1.45978H20.4739L20.8739 -0.000215054H33.9739L32.5339 1.45978ZM30.6339 3.35978H27.7139L24.2539 16.2798H22.5539L26.4139 1.93979H32.0739L30.6339 3.35978ZM35.1007 2.87978C35.2807 2.21978 35.7607 1.89978 36.4207 1.89978H41.0407L37.1607 16.2798H35.6607L39.1407 3.31979H36.5207L33.0407 16.2798H31.5007L35.1007 2.87978ZM43.3207 16.2798H41.7807L45.2607 3.31979H42.6607L39.1807 16.2798H37.6607L41.5207 1.89978H47.1807L43.3207 16.2798ZM33.2007 2.43978C33.6007 0.919785 34.7407 -0.000215054 36.3007 -0.000215054H49.7207L45.3407 16.2798H43.8007L47.8007 1.41978H36.3807C35.5607 1.41978 34.8807 1.93979 34.6607 2.75978L31.0007 16.2798H29.4807L33.2007 2.43978ZM56.9912 3.31979H55.7112L53.3312 8.59979H56.5312L56.9912 3.31979ZM57.9712 10.4998L57.5312 16.2798H55.8512L56.2512 11.9198H51.8512L49.8712 16.2798H48.2312L50.8712 10.4998H57.9712ZM52.5512 2.23978C53.2112 0.799784 54.2712 -0.000215054 56.0312 -0.000215054H60.8912L59.6712 16.2798H58.0312L59.1712 1.41978H55.9512C55.0312 1.41978 54.3712 1.83978 53.9312 2.77978L47.6912 16.2798H46.0912L52.5512 2.23978ZM54.3712 2.89978C54.6712 2.23978 55.1512 1.89978 55.8712 1.89978H58.6312L58.0112 10.0198H51.0712L54.3712 2.89978ZM65.1086 16.2798H63.4486L66.9086 3.35978H63.0086L63.4086 1.93979H68.9886L65.1086 16.2798ZM75.5886 1.45978H63.5286L63.9286 -0.000215054H77.0286L75.5886 1.45978ZM73.6886 3.35978H70.7686L67.3086 16.2798H65.6086L69.4686 1.93979H75.1286L73.6886 3.35978ZM75.5653 16.2798C73.4253 16.2798 72.4053 14.8598 72.9653 12.7798L75.7453 2.43978C76.1453 0.919785 77.2853 -0.000215054 78.8453 -0.000215054H87.3453L85.9253 1.41978H79.0253C78.2053 1.41978 77.5253 1.93979 77.3053 2.75978L74.5253 13.0998C74.2453 14.1598 74.7453 14.8598 75.8253 14.8598H82.4853L82.1053 16.2798H75.5653ZM75.9653 14.3798C75.1253 14.3798 74.7853 13.9198 75.0053 13.0998L77.7453 2.87978C77.9253 2.21978 78.4053 1.89978 79.0653 1.89978H85.4453L84.0253 3.31979H79.2453L76.6653 12.9598H83.0053L82.6253 14.3798H75.9653ZM85.1281 16.2798H83.5081L87.8881 -0.000215054H89.5081L85.1281 16.2798ZM93.2081 16.2798H91.6081L93.3881 9.59978H88.9881L87.2081 16.2798H85.6081L87.7681 8.19978H95.3681L93.2081 16.2798ZM89.8881 6.31978H94.2881L95.9881 -0.000215054H97.5881L95.5081 7.71978H87.9081L89.9881 -0.000215054H91.5881L89.8881 6.31978ZM95.3081 16.2798H93.6881L98.0681 -0.000215054H99.6881L95.3081 16.2798Z" fill="#2970FF"/>
</svg>
