<?xml version="1.0" encoding="UTF-8"?>
<svg version="1.1" xmlns="http://www.w3.org/2000/svg" width="1344" height="768">
<path d="M0 0 C443.52 0 887.04 0 1344 0 C1344 253.44 1344 506.88 1344 768 C900.48 768 456.96 768 0 768 C0 514.56 0 261.12 0 0 Z " fill="#F8F8F8" transform="translate(0,0)"/>
<path d="M0 0 C1.60255249 0.62912735 3.20654841 1.25460079 4.8125 1.875 C27.16178118 10.89129879 45.63536797 23.35094347 63 40 C63.7528125 40.7115625 64.505625 41.423125 65.28125 42.15625 C79.2586554 55.68992825 88.72169344 72.11041123 98 89 C99.32 89 100.64 89 102 89 C102 88.34 102 87.68 102 87 C103.84227235 85.5738219 105.75287544 84.23564453 107.6875 82.9375 C108.89471213 82.12136124 110.10173857 81.30494775 111.30859375 80.48828125 C111.92718262 80.07271973 112.54577148 79.6571582 113.18310547 79.22900391 C115.895399 77.3943243 118.56951574 75.50574433 121.25 73.625 C127.77672966 69.10222981 134.43605892 64.79804824 141.1171875 60.5078125 C144.06742251 58.61093109 146.98064859 56.6689377 149.875 54.6875 C162.84293003 46 162.84293003 46 168 46 C168 45.34 168 44.68 168 44 C192.23032697 31.08098681 192.23032697 31.08098681 203.66650391 26.03295898 C205.84441247 25.06887328 208.01499713 24.09028545 210.18359375 23.10546875 C225.24517203 16.2954134 240.48303441 10.36012744 256.20703125 5.26171875 C258.41212906 4.52820012 260.60635331 3.75557186 262.76171875 2.88671875 C264.86229827 2.05455199 266.78669876 1.54863969 269 1.125 C272.58685681 0.3750737 275.96707839 -0.63999663 279.4375 -1.8125 C290.36022629 -5.25161311 301.7423902 -7.00960041 313 -9 C313.73992188 -9.13180664 314.47984375 -9.26361328 315.2421875 -9.39941406 C335.60107383 -12.93687616 356.45089235 -12 377 -12 C377 79.41 377 170.82 377 265 C87.26 265 -202.48 265 -501 265 C-499.21103685 260.52759213 -497.11236967 256.88034713 -494.4375 252.9375 C-493.99567383 252.28064209 -493.55384766 251.62378418 -493.09863281 250.94702148 C-488.9344703 244.80703668 -484.51141203 238.88941142 -480 233 C-479.040167 231.70944734 -478.08168335 230.41788921 -477.125 229.125 C-470.46194617 220.26553784 -463.68187833 211.58043691 -456.171875 203.41796875 C-453.89769962 200.88610803 -451.75823476 198.27641412 -449.625 195.625 C-445.60273972 190.64973032 -441.35243515 185.966783 -436.96875 181.3125 C-434.54506728 178.68434413 -432.34606457 175.91708068 -430.12890625 173.11328125 C-424.38281208 166.0464109 -417.97095432 159.67051202 -411.51586914 153.25512695 C-409.43073614 151.1807711 -407.35658495 149.09586008 -405.28320312 147.00976562 C-403.93814117 145.66602456 -402.59245932 144.32290365 -401.24609375 142.98046875 C-400.63753036 142.3678569 -400.02896698 141.75524506 -399.40196228 141.12406921 C-395.72268579 137.48404101 -391.90328152 134.29276337 -387.7046814 131.26431274 C-385.6551249 129.74421614 -383.92395405 128.05408644 -382.1875 126.1875 C-378.39134457 122.28814811 -374.31210309 118.90288493 -370.0703125 115.5 C-365.98176691 112.17090435 -362.00234042 108.72087801 -358.03466797 105.24902344 C-347.36439244 96 -347.36439244 96 -344 96 C-344 95.34 -344 94.68 -344 94 C-343.34 94 -342.68 94 -342 94 C-342 93.34 -342 92.68 -342 92 C-340.68 91.67 -339.36 91.34 -338 91 C-338 90.34 -338 89.68 -338 89 C-335.91015625 87.265625 -335.91015625 87.265625 -333.0625 85.25 C-332.06476563 84.54359375 -331.06703125 83.8371875 -330.0390625 83.109375 C-329.03617188 82.41328125 -328.03328125 81.7171875 -327 81 C-326.12085938 80.38640625 -325.24171875 79.7728125 -324.3359375 79.140625 C-318.2827381 75 -318.2827381 75 -316 75 C-316 74.34 -316 73.68 -316 73 C-314.02 72.34 -312.04 71.68 -310 71 C-310 70.34 -310 69.68 -310 69 C-308.49047852 67.85839844 -308.49047852 67.85839844 -306.37890625 66.609375 C-305.61255859 66.15006592 -304.84621094 65.69075684 -304.05664062 65.2175293 C-302.82204102 64.49110229 -302.82204102 64.49110229 -301.5625 63.75 C-299.8963237 62.7526569 -298.23094858 61.75397402 -296.56640625 60.75390625 C-295.7686377 60.2758252 -294.97086914 59.79774414 -294.14892578 59.30517578 C-291.72017787 57.83004668 -289.34909043 56.28624575 -287 54.6875 C-279.61736377 49.69845286 -272.6526282 45.38260777 -264 43 C-264 42.34 -264 41.68 -264 41 C-259.17146963 38.53550202 -254.3372961 36.08254385 -249.49804688 33.63916016 C-247.85981285 32.8101164 -246.22303735 31.97818284 -244.58789062 31.14306641 C-234.98059902 26.23909876 -225.42492887 21.78201225 -215.24707031 18.19042969 C-212.61747204 17.22637546 -210.21157514 16.19577163 -207.75 14.875 C-202.76399782 12.22240281 -197.36278781 10.70959175 -192 9 C-187.27159284 7.45667646 -182.57057777 5.85268164 -177.890625 4.16796875 C-162.18131758 -1.40142771 -146.37971668 -5.0036208 -130 -8 C-129.07783691 -8.17402344 -128.15567383 -8.34804688 -127.20556641 -8.52734375 C-87.18568437 -16.00451916 -37.81249887 -16.10171534 0 0 Z " fill="#D8E6F7" transform="translate(967,503)"/>
<path d="M0 0 C0.66 0 1.32 0 2 0 C2.51046875 1.17755859 2.51046875 1.17755859 3.03125 2.37890625 C8.05320028 13.26425062 13.78827324 18.82155554 25 23 C25 23.66 25 24.32 25 25 C24.21496094 25.3403125 23.42992187 25.680625 22.62109375 26.03125 C11.73574938 31.05320028 6.17844446 36.78827324 2 48 C1.34 48 0.68 48 0 48 C-0.3403125 47.21496094 -0.680625 46.42992187 -1.03125 45.62109375 C-6.05320028 34.73574938 -11.78827324 29.17844446 -23 25 C-23 24.34 -23 23.68 -23 23 C-22.21496094 22.6596875 -21.42992187 22.319375 -20.62109375 21.96875 C-9.73574938 16.94679972 -4.17844446 11.21172676 0 0 Z " fill="#E9F1FA" transform="translate(1287,688)"/>
<path d="M0 0 C2.32421875 0.1640625 2.32421875 0.1640625 5 1 C6.58203125 3.3984375 6.58203125 3.3984375 7.8125 6.375 C8.44091797 7.84066406 8.44091797 7.84066406 9.08203125 9.3359375 C10 12 10 12 10 15 C10.99 15.103125 11.98 15.20625 13 15.3125 C17.28297163 15.90808706 20.99996371 17.38595027 25 19 C24.505 21.475 24.505 21.475 24 24 C23.04738281 24.13792969 22.09476563 24.27585937 21.11328125 24.41796875 C16.91381919 25.26821955 13.82504764 26.04826727 10 28 C7.97841879 31.38339952 7.01230737 34.37758373 6.08984375 38.19921875 C5.73019531 39.12347656 5.37054688 40.04773438 5 41 C2.37890625 41.89453125 2.37890625 41.89453125 0 42 C-0.63032133 40.79443396 -1.2539497 39.58536811 -1.875 38.375 C-2.22304687 37.70210938 -2.57109375 37.02921875 -2.9296875 36.3359375 C-4 34 -4 34 -4.6875 30.875 C-5.76650282 27.67420781 -5.76650282 27.67420781 -9.2578125 26.5390625 C-10.53398438 26.23742187 -11.81015625 25.93578125 -13.125 25.625 C-14.40632813 25.30789063 -15.68765625 24.99078125 -17.0078125 24.6640625 C-17.99523438 24.44492187 -18.98265625 24.22578125 -20 24 C-20.33 22.35 -20.66 20.7 -21 19 C-16.00703705 16.0554321 -11.66442374 15.36504064 -6 15 C-5.81824219 14.33613281 -5.63648438 13.67226563 -5.44921875 12.98828125 C-4.10476709 8.26546387 -2.85015263 4.07164661 0 0 Z " fill="#FCF1AE" transform="translate(69,369)"/>
</svg>
