<svg width="103" height="32" viewBox="0 0 103 32" fill="none" xmlns="http://www.w3.org/2000/svg">
<path d="M16.2423 9.14H7.72234L3.74234 24H2.12234L6.50234 7.72H17.6623L16.2423 9.14ZM13.1423 17.46H7.58234L5.82234 24H4.22234L6.36234 16.04H13.5223L13.1423 17.46ZM14.3423 11.04H9.30234L8.48234 14.14H14.0423L13.6423 15.56H6.50234L8.10234 9.62H15.7623L14.3423 11.04ZM15.4981 24H13.8581L18.2381 7.72H19.8781L15.4981 24ZM17.6181 24H15.9781L20.3581 7.72H21.9981L17.6181 24ZM24.1759 24H22.5159L25.9759 11.08H22.0759L22.4759 9.66H28.0559L24.1759 24ZM34.6559 9.18H22.5959L22.9959 7.72H36.0959L34.6559 9.18ZM32.7559 11.08H29.8359L26.3759 24H24.6759L28.5359 9.66H34.1959L32.7559 11.08ZM37.2228 10.6C37.4028 9.94 37.8828 9.62 38.5428 9.62H43.1628L39.2828 24H37.7828L41.2628 11.04H38.6428L35.1628 24H33.6228L37.2228 10.6ZM45.4428 24H43.9028L47.3828 11.04H44.7828L41.3028 24H39.7828L43.6428 9.62H49.3028L45.4428 24ZM35.3228 10.16C35.7228 8.64 36.8628 7.72 38.4228 7.72H51.8428L47.4628 24H45.9228L49.9228 9.14H38.5028C37.6828 9.14 37.0028 9.66 36.7828 10.48L33.1228 24H31.6028L35.3228 10.16ZM59.1133 11.04H57.8333L55.4533 16.32H58.6533L59.1133 11.04ZM60.0933 18.22L59.6533 24H57.9733L58.3733 19.64H53.9733L51.9933 24H50.3533L52.9933 18.22H60.0933ZM54.6733 9.96C55.3333 8.52 56.3933 7.72 58.1533 7.72H63.0133L61.7933 24H60.1533L61.2933 9.14H58.0733C57.1533 9.14 56.4933 9.56 56.0533 10.5L49.8133 24H48.2133L54.6733 9.96ZM56.4933 10.62C56.7933 9.96 57.2733 9.62 57.9933 9.62H60.7533L60.1333 17.74H53.1933L56.4933 10.62ZM67.2306 24H65.5706L69.0306 11.08H65.1306L65.5306 9.66H71.1106L67.2306 24ZM77.7106 9.18H65.6506L66.0506 7.72H79.1506L77.7106 9.18ZM75.8106 11.08H72.8906L69.4306 24H67.7306L71.5906 9.66H77.2506L75.8106 11.08ZM77.6873 24C75.5473 24 74.5273 22.58 75.0873 20.5L77.8673 10.16C78.2673 8.64 79.4073 7.72 80.9673 7.72H89.4673L88.0473 9.14H81.1473C80.3273 9.14 79.6473 9.66 79.4273 10.48L76.6473 20.82C76.3673 21.88 76.8673 22.58 77.9473 22.58H84.6073L84.2273 24H77.6873ZM78.0873 22.1C77.2473 22.1 76.9073 21.64 77.1273 20.82L79.8673 10.6C80.0473 9.94 80.5273 9.62 81.1873 9.62H87.5673L86.1473 11.04H81.3673L78.7873 20.68H85.1273L84.7473 22.1H78.0873ZM87.2502 24H85.6302L90.0102 7.72H91.6302L87.2502 24ZM95.3302 24H93.7302L95.5102 17.32H91.1102L89.3302 24H87.7302L89.8902 15.92H97.4902L95.3302 24ZM92.0102 14.04H96.4102L98.1102 7.72H99.7102L97.6302 15.44H90.0302L92.1102 7.72H93.7102L92.0102 14.04ZM97.4302 24H95.8102L100.19 7.72H101.81L97.4302 24Z" fill="#A4A7AE"/>
</svg>
