<svg width="16" height="16" viewBox="0 0 16 16" fill="none" xmlns="http://www.w3.org/2000/svg">
<path d="M12.6667 6.6665C12.6667 4.08917 10.5773 1.99984 8 1.99984C5.42267 1.99984 3.33333 4.08917 3.33333 6.6665C3.33333 7.9279 3.90193 9.11866 4.86133 10.3644C5.71464 11.4724 6.81948 12.5547 8 13.7264C9.18052 12.5547 10.2854 11.4724 11.1387 10.3644C12.0981 9.11866 12.6667 7.9279 12.6667 6.6665ZM9.33333 6.6665C9.33333 5.93012 8.73638 5.33317 8 5.33317C7.26362 5.33317 6.66667 5.93012 6.66667 6.6665C6.66667 7.40288 7.26362 7.99984 8 7.99984C8.73638 7.99984 9.33333 7.40288 9.33333 6.6665ZM10.6667 6.6665C10.6667 8.13926 9.47276 9.33317 8 9.33317C6.52724 9.33317 5.33333 8.13926 5.33333 6.6665C5.33333 5.19374 6.52724 3.99984 8 3.99984C9.47276 3.99984 10.6667 5.19374 10.6667 6.6665ZM14 6.6665C14 8.35059 13.2352 9.82641 12.1947 11.1776C11.1606 12.5202 9.78254 13.8267 8.47135 15.1379C8.211 15.3982 7.789 15.3982 7.52865 15.1379C6.21746 13.8267 4.83937 12.5202 3.80534 11.1776C2.76478 9.82641 2 8.35059 2 6.6665C2 3.3528 4.68629 0.666504 8 0.666504C11.3137 0.666504 14 3.3528 14 6.6665Z" fill="#414651"/>
</svg>
