<svg width="30" height="30" viewBox="0 0 30 30" fill="none" xmlns="http://www.w3.org/2000/svg">
<rect x="0.625" y="0.625" width="28.75" height="28.75" rx="14.375" fill="white"/>
<rect x="0.625" y="0.625" width="28.75" height="28.75" rx="14.375" stroke="#D5D7DA" stroke-width="1.25"/>
<circle cx="15" cy="15" r="11.25" fill="#2970FF"/>
<path d="M12 12.7969L10.1875 14.6094C10.0729 14.724 9.94271 14.7786 9.79688 14.7734C9.65104 14.7682 9.52083 14.7083 9.40625 14.5938C9.29167 14.4792 9.23438 14.3464 9.23438 14.1953C9.23438 14.0443 9.29167 13.9115 9.40625 13.7969L9.79688 13.4062L9.39062 13C9.27604 12.8854 9.21875 12.7552 9.21875 12.6094C9.21875 12.4635 9.27604 12.3333 9.39062 12.2188L10.4062 11.2031L9.75 10.5312C9.63542 10.4167 9.57812 10.2865 9.57812 10.1406C9.57812 9.99479 9.63542 9.86458 9.75 9.75C9.86458 9.63542 9.99479 9.57812 10.1406 9.57812C10.2865 9.57812 10.4167 9.63542 10.5312 9.75L11.2031 10.4062L12.2188 9.39062C12.3333 9.27604 12.4635 9.21875 12.6094 9.21875C12.7552 9.21875 12.8854 9.27604 13 9.39062L13.4062 9.79688L13.8125 9.39062C13.9271 9.27604 14.0599 9.21875 14.2109 9.21875C14.362 9.21875 14.4948 9.27604 14.6094 9.39062C14.724 9.50521 14.7812 9.63802 14.7812 9.78906C14.7812 9.9401 14.724 10.0729 14.6094 10.1875L12.7969 12L18 17.2031L19.8125 15.3906C19.9271 15.276 20.0599 15.2188 20.2109 15.2188C20.362 15.2188 20.4948 15.276 20.6094 15.3906C20.724 15.5052 20.7812 15.638 20.7812 15.7891C20.7812 15.9401 20.724 16.0729 20.6094 16.1875L20.2031 16.5938L20.6094 17C20.724 17.1146 20.7812 17.2448 20.7812 17.3906C20.7812 17.5365 20.724 17.6667 20.6094 17.7812L19.5938 18.7969L20.25 19.4688C20.3646 19.5833 20.4219 19.7135 20.4219 19.8594C20.4219 20.0052 20.3646 20.1354 20.25 20.25C20.1354 20.3646 20.0052 20.4219 19.8594 20.4219C19.7135 20.4219 19.5833 20.3646 19.4688 20.25L18.7969 19.5938L17.7812 20.6094C17.6667 20.724 17.5365 20.7812 17.3906 20.7812C17.2448 20.7812 17.1146 20.724 17 20.6094L16.5938 20.2031L16.1875 20.6094C16.0729 20.724 15.9427 20.7786 15.7969 20.7734C15.651 20.7682 15.5208 20.7083 15.4062 20.5938C15.2917 20.4792 15.2344 20.3464 15.2344 20.1953C15.2344 20.0443 15.2917 19.9115 15.4062 19.7969L17.2031 18L12 12.7969Z" fill="white"/>
</svg>
