<svg width="24" height="24" viewBox="0 0 24 24" fill="none" xmlns="http://www.w3.org/2000/svg">
<path d="M5.09962 1.87764C5.95096 1.44704 6.95629 1.44704 7.80763 1.87764C8.27165 2.11235 8.67065 2.52777 9.1465 3.00362L9.34083 3.19893C9.65434 3.51243 9.92551 3.77542 10.1113 4.06123C10.7576 5.05547 10.7576 6.33752 10.1113 7.33174C9.92551 7.61757 9.65433 7.88055 9.34083 8.19405C9.28341 8.25147 9.25387 8.28082 9.23341 8.30245L9.23146 8.31416C9.23476 8.32147 9.23899 8.33139 9.24513 8.34444C9.25473 8.36483 9.26684 8.38854 9.28224 8.42061C9.93004 9.76971 10.8131 11.0354 11.9336 12.156C13.0542 13.2765 14.3199 14.1595 15.669 14.8073C15.701 14.8227 15.7247 14.8348 15.7451 14.8444C15.7575 14.8503 15.7673 14.8539 15.7744 14.8571C15.7764 14.8569 15.7788 14.8576 15.7813 14.8571C15.783 14.8568 15.7846 14.8555 15.7861 14.8552C15.8078 14.8347 15.8381 14.8062 15.8955 14.7487C16.209 14.4352 16.472 14.1641 16.7578 13.9782C17.7521 13.3319 19.0341 13.3319 20.0283 13.9782C20.3142 14.1641 20.5771 14.4352 20.8906 14.7487L21.4297 15.2878C21.7585 15.6223 22.0359 15.9339 22.2119 16.2819C22.6425 17.1333 22.6425 18.1386 22.2119 18.9899C21.9772 19.4539 21.5608 19.852 21.085 20.3278L20.9277 20.486C20.4288 20.985 20.0608 21.3634 19.5557 21.6472C19.0057 21.956 18.2157 22.1617 17.585 22.1599C17.0135 22.1582 16.6021 22.0357 16.0557 21.8806C12.8625 20.9742 9.84954 19.2633 7.3379 16.7517C4.82627 14.24 3.11533 11.2271 2.209 8.03389C2.0539 7.48745 1.93141 7.07611 1.9297 6.50459C1.92782 5.8739 2.13353 5.08383 2.4424 4.53389C2.72615 4.02876 3.10456 3.66078 3.60353 3.16182L4.10548 2.65987C4.44 2.33109 4.75164 2.05368 5.09962 1.87764ZM6.90529 3.66182C6.62151 3.51829 6.28575 3.51829 6.00197 3.66182C5.89528 3.71584 5.76245 3.832 5.17579 4.41866L5.01759 4.57588C4.45748 5.136 4.30626 5.29852 4.18556 5.51338C4.04575 5.76254 3.92885 6.21322 3.9297 6.49873C3.93047 6.7528 3.96765 6.90605 4.13283 7.48799C4.94843 10.3616 6.48764 13.0733 8.75197 15.3376C11.0163 17.6019 13.728 19.1411 16.6016 19.9567C17.1835 20.1219 17.3368 20.1591 17.5908 20.1599C17.8763 20.1607 18.327 20.0438 18.5762 19.904C18.7911 19.7833 18.9536 19.6321 19.5137 19.072L19.6709 18.9138C20.2576 18.3271 20.3737 18.1943 20.4277 18.0876C20.5713 17.8038 20.5713 17.4681 20.4277 17.1843C20.3737 17.0776 20.2577 16.9449 19.6709 16.3581L19.4766 16.1628C19.0909 15.7771 19.0042 15.6977 18.9385 15.655C18.607 15.4395 18.1791 15.4395 17.8477 15.655C17.7819 15.6977 17.6952 15.7772 17.3096 16.1628C17.2165 16.2559 17.0948 16.3816 16.9463 16.488C16.4593 16.8366 15.7976 16.9495 15.2227 16.7819C15.0497 16.7315 14.9095 16.6618 14.8037 16.611C13.2538 15.8669 11.802 14.8525 10.5195 13.57C9.23707 12.2875 8.2227 10.8358 7.47853 9.28584C7.42773 9.18006 7.35806 9.03988 7.30763 8.8669C7.14004 8.29194 7.25297 7.63023 7.60158 7.14327C7.70794 6.99473 7.83369 6.87306 7.92677 6.77998C8.31241 6.39434 8.39184 6.30763 8.43458 6.2419C8.65008 5.91046 8.65007 5.48252 8.43458 5.15108C8.39184 5.08534 8.31248 4.9987 7.92677 4.61299L7.73146 4.41866C7.14465 3.83184 7.01199 3.71582 6.90529 3.66182Z" fill="#414651"/>
</svg>
