<svg width="20" height="20" viewBox="0 0 20 20" fill="none" xmlns="http://www.w3.org/2000/svg">
<path d="M15.8337 9.58341C15.8337 6.13163 13.0354 3.33341 9.58366 3.33341C6.13188 3.33341 3.33366 6.13163 3.33366 9.58341C3.33366 13.0352 6.13188 15.8334 9.58366 15.8334C11.2669 15.8334 12.7934 15.1667 13.9172 14.0846C13.9407 14.0532 13.966 14.0227 13.9945 13.9942C14.0229 13.9658 14.0535 13.9404 14.0848 13.9169C15.1669 12.7932 15.8337 11.2667 15.8337 9.58341ZM17.5003 9.58341C17.5003 11.4693 16.8393 13.2 15.7384 14.5598L18.0895 16.9109C18.4149 17.2363 18.415 17.7638 18.0895 18.0893C17.7641 18.4147 17.2366 18.4147 16.9111 18.0893L14.5601 15.7382C13.2002 16.8391 11.4696 17.5001 9.58366 17.5001C5.2114 17.5001 1.66699 13.9557 1.66699 9.58341C1.66699 5.21116 5.2114 1.66675 9.58366 1.66675C13.9559 1.66675 17.5003 5.21116 17.5003 9.58341Z" fill="#181D27"/>
</svg>
