<svg width="32" height="29" viewBox="0 0 32 29" fill="none" xmlns="http://www.w3.org/2000/svg">
<path d="M14.1001 1.22279C14.7877 -0.407594 17.0981 -0.407593 17.7857 1.22279L21.0543 8.97283C21.2872 9.52508 21.7555 9.94376 22.3303 10.1136L30.4526 12.5139C32.3635 13.0786 32.3635 15.7852 30.4526 16.3499L22.3303 18.7502C21.7555 18.92 21.2872 19.3387 21.0543 19.891L17.7857 27.641C17.0981 29.2714 14.7877 29.2714 14.1001 27.641L10.8315 19.891C10.5985 19.3387 10.1302 18.92 9.55545 18.7502L1.43317 16.3499C-0.477758 15.7852 -0.477754 13.0786 1.43317 12.5139L9.55546 10.1136C10.1302 9.94376 10.5985 9.52508 10.8315 8.97283L14.1001 1.22279Z" fill="#FFF4AD"/>
</svg>
