<svg width="15" height="14" viewBox="0 0 15 14" fill="none" xmlns="http://www.w3.org/2000/svg">
<path d="M6.64923 0.246371C6.78586 -0.0821463 7.25124 -0.0821472 7.38788 0.24637L9.04076 4.22035C9.09836 4.35885 9.2286 4.45347 9.37812 4.46546L13.6684 4.80941C14.023 4.83784 14.1668 5.28044 13.8966 5.51191L10.6279 8.31192C10.514 8.4095 10.4642 8.56261 10.499 8.70851L11.4977 12.8951C11.5802 13.2412 11.2037 13.5147 10.9001 13.3292L7.22706 11.0858C7.09905 11.0076 6.93806 11.0076 6.81005 11.0858L3.137 13.3292C2.83336 13.5147 2.45686 13.2412 2.53942 12.8951L3.53806 8.70851C3.57287 8.56261 3.52312 8.4095 3.4092 8.31192L0.140485 5.51191C-0.129729 5.28045 0.0140803 4.83784 0.368742 4.80941L4.65899 4.46546C4.80851 4.45347 4.93875 4.35885 4.99635 4.22035L6.64923 0.246371Z" fill="#F5F5F5"/>
</svg>
