<svg width="32" height="32" viewBox="0 0 32 32" fill="none" xmlns="http://www.w3.org/2000/svg">
<path d="M28.0002 9.60027C28.0002 8.83153 27.9985 8.33482 27.9676 7.95704C27.938 7.59492 27.8879 7.46045 27.8543 7.39454C27.7265 7.14391 27.5229 6.94029 27.2723 6.81251C27.2064 6.77892 27.0719 6.72882 26.7098 6.69922C26.521 6.6838 26.3025 6.6747 26.0353 6.67058L25.0666 6.66667H6.93376C6.16502 6.66667 5.66832 6.66836 5.29053 6.69922C4.92842 6.72882 4.79395 6.77892 4.72803 6.81251C4.47741 6.94029 4.27379 7.14391 4.146 7.39454C4.11242 7.46045 4.06232 7.59492 4.03272 7.95704C4.00185 8.33482 4.00017 8.83153 4.00017 9.60027V10.1497C6.67204 10.7561 8.66683 13.1446 8.66683 16C8.66683 18.8553 6.6719 21.2425 4.00017 21.849V22.3997C4.00017 23.1685 4.00185 23.6652 4.03272 24.043C4.06232 24.4051 4.11242 24.5396 4.146 24.6055C4.27379 24.8561 4.47741 25.0597 4.72803 25.1875C4.79395 25.2211 4.92842 25.2712 5.29053 25.3008C5.66832 25.3317 6.16502 25.3333 6.93376 25.3333H25.0666C25.8353 25.3333 26.332 25.3317 26.7098 25.3008C27.0719 25.2712 27.2064 25.2211 27.2723 25.1875C27.5229 25.0597 27.7265 24.8561 27.8543 24.6055C27.8879 24.5396 27.938 24.4051 27.9676 24.043C27.9985 23.6652 28.0002 23.1685 28.0002 22.3997V21.849C25.3284 21.2425 23.3335 18.8553 23.3335 16C23.3335 13.1446 25.3283 10.7561 28.0002 10.1497V9.60027ZM12.0002 22.6667V21.3333C12.0002 20.597 12.5971 20 13.3335 20C14.0699 20 14.6668 20.597 14.6668 21.3333V22.6667C14.6668 23.4031 14.0699 24 13.3335 24C12.5971 24 12.0002 23.4031 12.0002 22.6667ZM12.0002 16.6667V15.3333C12.0002 14.597 12.5971 14 13.3335 14C14.0699 14 14.6668 14.597 14.6668 15.3333V16.6667C14.6668 17.4031 14.0699 18 13.3335 18C12.5971 18 12.0002 17.4031 12.0002 16.6667ZM12.0002 10.6667V9.33334C12.0002 8.59696 12.5971 8.00001 13.3335 8.00001C14.0699 8.00001 14.6668 8.59696 14.6668 9.33334V10.6667C14.6668 11.4031 14.0699 12 13.3335 12C12.5971 12 12.0002 11.4031 12.0002 10.6667ZM30.6668 11.3333C30.6668 12.0697 30.0699 12.6667 29.3335 12.6667C27.4925 12.6667 26.0002 14.1591 26.0002 16C26.0002 17.841 27.4925 19.3333 29.3335 19.3333C30.0699 19.3333 30.6668 19.9303 30.6668 20.6667V22.3997C30.6668 23.1245 30.6683 23.7489 30.6265 24.2604C30.5834 24.7874 30.4876 25.312 30.2306 25.8164C29.8472 26.5687 29.2355 27.1804 28.4832 27.5638C27.9788 27.8208 27.4543 27.9166 26.9272 27.9596C26.4157 28.0014 25.7913 28 25.0666 28H6.93376C6.20903 28 5.58465 28.0014 5.07309 27.9596C4.54607 27.9166 4.02149 27.8208 3.5171 27.5638C2.7648 27.1804 2.15313 26.5687 1.7697 25.8164C1.5127 25.312 1.41695 24.7874 1.37387 24.2604C1.33207 23.7489 1.3335 23.1245 1.3335 22.3997V20.6667C1.3335 19.9303 1.93046 19.3333 2.66684 19.3333C4.50778 19.3333 6.00017 17.841 6.00017 16C6.00017 14.1591 4.50778 12.6667 2.66684 12.6667C1.93046 12.6667 1.3335 12.0697 1.3335 11.3333V9.60027C1.3335 8.87553 1.33207 8.25115 1.37387 7.73959C1.41695 7.21258 1.5127 6.688 1.7697 6.1836C2.15313 5.4313 2.7648 4.81964 3.5171 4.4362C4.02149 4.1792 4.54607 4.08345 5.07309 4.04037C5.58465 3.99857 6.20903 4.00001 6.93376 4.00001H25.0666L26.077 4.00521C26.3874 4.01018 26.6715 4.01948 26.9272 4.04037C27.4543 4.08345 27.9788 4.1792 28.4832 4.4362C29.2355 4.81964 29.8472 5.4313 30.2306 6.1836C30.4876 6.688 30.5834 7.21258 30.6265 7.73959C30.6683 8.25115 30.6668 8.87553 30.6668 9.60027V11.3333Z" fill="#528BFF"/>
</svg>
