<svg width="31" height="31" viewBox="0 0 31 31" fill="none" xmlns="http://www.w3.org/2000/svg">
<path d="M27.0004 9.25768C27.0004 8.5164 26.9988 8.03743 26.969 7.67314C26.9405 7.32395 26.8922 7.19429 26.8598 7.13073C26.7366 6.88905 26.5402 6.6927 26.2986 6.56948C26.235 6.53709 26.1053 6.48878 25.7561 6.46025C25.5741 6.44537 25.3634 6.4366 25.1058 6.43262L24.1716 6.42886H6.68639C5.94511 6.42886 5.46614 6.43048 5.10185 6.46025C4.75266 6.48878 4.623 6.53709 4.55944 6.56948C4.31776 6.6927 4.12142 6.88905 3.99819 7.13073C3.96581 7.19429 3.9175 7.32395 3.88896 7.67314C3.85919 8.03743 3.85757 8.5164 3.85757 9.25768V9.78753C6.43401 10.3723 8.35757 12.6755 8.35757 15.4289C8.35757 18.1822 6.43388 20.4841 3.85757 21.0689V21.6C3.85757 22.3413 3.85919 22.8203 3.88896 23.1846C3.9175 23.5338 3.96581 23.6634 3.99819 23.727C4.12141 23.9687 4.31776 24.165 4.55944 24.2882C4.623 24.3206 4.75266 24.3689 5.10185 24.3975C5.46614 24.4272 5.94511 24.4289 6.68639 24.4289H24.1716C24.9129 24.4289 25.3919 24.4272 25.7561 24.3975C26.1053 24.3689 26.235 24.3206 26.2986 24.2882C26.5402 24.165 26.7366 23.9687 26.8598 23.727C26.8922 23.6634 26.9405 23.5338 26.969 23.1846C26.9988 22.8203 27.0004 22.3413 27.0004 21.6V21.0689C24.4241 20.4841 22.5004 18.1822 22.5004 15.4289C22.5004 12.6755 24.424 10.3723 27.0004 9.78753V9.25768ZM11.5719 21.8574V20.5717C11.5719 19.8616 12.1475 19.286 12.8576 19.286C13.5676 19.286 14.1433 19.8616 14.1433 20.5717V21.8574C14.1433 22.5675 13.5676 23.1431 12.8576 23.1431C12.1475 23.1431 11.5719 22.5675 11.5719 21.8574ZM11.5719 16.0717V14.786C11.5719 14.0759 12.1475 13.5003 12.8576 13.5003C13.5676 13.5003 14.1433 14.0759 14.1433 14.786V16.0717C14.1433 16.7818 13.5676 17.3574 12.8576 17.3574C12.1475 17.3574 11.5719 16.7818 11.5719 16.0717ZM11.5719 10.286V9.00028C11.5719 8.2902 12.1475 7.71457 12.8576 7.71457C13.5676 7.71457 14.1433 8.2902 14.1433 9.00028V10.286C14.1433 10.9961 13.5676 11.5717 12.8576 11.5717C12.1475 11.5717 11.5719 10.9961 11.5719 10.286ZM29.5719 10.9289C29.5719 11.6389 28.9962 12.2146 28.2861 12.2146C26.5109 12.2146 25.0719 13.6537 25.0719 15.4289C25.0719 17.2041 26.5109 18.6431 28.2861 18.6431C28.9962 18.6431 29.5719 19.2188 29.5719 19.9289V21.6C29.5719 22.2989 29.5732 22.901 29.5329 23.3943C29.4914 23.9024 29.3991 24.4083 29.1512 24.8947C28.7815 25.6201 28.1917 26.2099 27.4662 26.5797C26.9799 26.8275 26.474 26.9198 25.9658 26.9614C25.4725 27.0017 24.8705 27.0003 24.1716 27.0003H6.68639C5.98754 27.0003 5.38546 27.0017 4.89217 26.9614C4.38398 26.9198 3.87813 26.8275 3.39175 26.5797C2.66632 26.2099 2.0765 25.6201 1.70676 24.8947C1.45893 24.4083 1.3666 23.9024 1.32506 23.3943C1.28476 22.901 1.28614 22.2989 1.28614 21.6V19.9289C1.28614 19.2188 1.86177 18.6431 2.57185 18.6431C4.34705 18.6431 5.78614 17.2041 5.78614 15.4289C5.78614 13.6537 4.34705 12.2146 2.57185 12.2146C1.86177 12.2146 1.28614 11.6389 1.28614 10.9289V9.25768C1.28614 8.55883 1.28476 7.95675 1.32506 7.46345C1.3666 6.95527 1.45893 6.44942 1.70676 5.96304C2.0765 5.23761 2.66632 4.64779 3.39175 4.27805C3.87813 4.03022 4.38398 3.93789 4.89217 3.89635C5.38546 3.85605 5.98754 3.85743 6.68639 3.85743H24.1716L25.1459 3.86245C25.4452 3.86724 25.7192 3.8762 25.9658 3.89635C26.474 3.93789 26.9799 4.03022 27.4662 4.27805C28.1917 4.64778 28.7815 5.2376 29.1512 5.96304C29.3991 6.44942 29.4914 6.95527 29.5329 7.46345C29.5732 7.95675 29.5719 8.55883 29.5719 9.25768V10.9289Z" fill="#414651"/>
</svg>
