<svg width="12" height="12" viewBox="0 0 12 12" fill="none" xmlns="http://www.w3.org/2000/svg">
<path d="M5.99993 7.5C4.41489 7.5 3.00532 8.26532 2.10792 9.45298C1.91478 9.7086 1.81821 9.83641 1.82136 10.0091C1.8238 10.1426 1.90761 10.3109 2.01261 10.3933C2.14852 10.5 2.33686 10.5 2.71354 10.5H9.28631C9.66299 10.5 9.85133 10.5 9.98724 10.3933C10.0922 10.3109 10.176 10.1426 10.1785 10.0091C10.1816 9.83641 10.0851 9.7086 9.89193 9.45298C8.99453 8.26532 7.58496 7.5 5.99993 7.5Z" fill="#717680"/>
<path d="M5.99993 6C7.24257 6 8.24993 4.99264 8.24993 3.75C8.24993 2.50736 7.24257 1.5 5.99993 1.5C4.75728 1.5 3.74993 2.50736 3.74993 3.75C3.74993 4.99264 4.75728 6 5.99993 6Z" fill="#717680"/>
</svg>
