<svg width="12" height="12" viewBox="0 0 12 12" fill="none" xmlns="http://www.w3.org/2000/svg">
<path d="M8.64645 2.64645C8.84171 2.45118 9.15822 2.45118 9.35348 2.64645C9.54874 2.84171 9.54874 3.15822 9.35348 3.35348L6.70699 5.99996L9.35348 8.64645C9.54874 8.84171 9.54874 9.15822 9.35348 9.35348C9.15822 9.54874 8.84171 9.54874 8.64645 9.35348L5.99996 6.70699L3.35348 9.35348C3.15822 9.54874 2.84171 9.54874 2.64645 9.35348C2.45118 9.15822 2.45118 8.84171 2.64645 8.64645L5.29293 5.99996L2.64645 3.35348C2.45118 3.15822 2.45118 2.84171 2.64645 2.64645C2.84171 2.45118 3.15822 2.45118 3.35348 2.64645L5.99996 5.29293L8.64645 2.64645Z" fill="#2970FF"/>
</svg>
