<svg width="18" height="18" viewBox="0 0 18 18" fill="none" xmlns="http://www.w3.org/2000/svg">
<path d="M12.8099 3.92057C13.0992 3.63129 13.5681 3.63129 13.8574 3.92057C14.1467 4.20985 14.1467 4.67875 13.8574 4.96802L9.93669 8.88874L13.8574 12.8095C14.1467 13.0987 14.1467 13.5676 13.8574 13.8569C13.5681 14.1462 13.0992 14.1462 12.8099 13.8569L8.88923 9.9362L4.96851 13.8569C4.67924 14.1462 4.21034 14.1462 3.92106 13.8569C3.63178 13.5676 3.63178 13.0987 3.92106 12.8095L7.84178 8.88874L3.92106 4.96802C3.63178 4.67875 3.63178 4.20985 3.92106 3.92057C4.21034 3.63129 4.67924 3.63129 4.96851 3.92057L8.88923 7.84129L12.8099 3.92057Z" fill="#717680"/>
</svg>
